<?xml version="1.0" encoding="utf-8"?>
<!-- Generator: Adobe Illustrator 23.0.1, SVG Export Plug-In . SVG Version: 6.00 Build 0)  -->
<svg version="1.1" id="Layer_1" xmlns="http://www.w3.org/2000/svg" xmlns:xlink="http://www.w3.org/1999/xlink" x="0px" y="0px"
	 viewBox="0 0 1029.1 727.2" style="enable-background:new 0 0 1029.1 727.2;" xml:space="preserve">
<style type="text/css">
	.st0{fill-rule:evenodd;clip-rule:evenodd;fill:#DDD2E8;}
	.st1{fill-rule:evenodd;clip-rule:evenodd;fill:#231E33;}
	.st2{fill-rule:evenodd;clip-rule:evenodd;fill:#291244;}
	.st3{fill-rule:evenodd;clip-rule:evenodd;fill:#4CBD94;}
	.st4{fill-rule:evenodd;clip-rule:evenodd;fill:#9EE8A6;}
	.st5{fill:none;stroke:#4A8150;stroke-miterlimit:10;}
	.st6{fill-rule:evenodd;clip-rule:evenodd;fill:#4A8150;}
	.st7{fill:#919090;}
	.st8{fill:#00C4AB;}
	.st9{fill-rule:evenodd;clip-rule:evenodd;fill:#AAF9B5;}
	.st10{fill-rule:evenodd;clip-rule:evenodd;fill:#BA7D47;}
	.st11{fill-rule:evenodd;clip-rule:evenodd;fill:#D89545;}
	.st12{fill:#D89545;}
	.st13{fill:none;stroke:#000000;stroke-miterlimit:10;}
	.st14{fill:#4CBD94;}
	.st15{fill-rule:evenodd;clip-rule:evenodd;fill:#FFFFFF;stroke:#4A8150;stroke-miterlimit:10;}
	.st16{fill:#33BC84;}
	.st17{fill:none;stroke:#33BC84;stroke-miterlimit:10;}
	.st18{fill-rule:evenodd;clip-rule:evenodd;fill:#3A185B;}
	.st19{fill:#3A185B;}
	.st20{fill-rule:evenodd;clip-rule:evenodd;fill:#7A7A7A;}
</style>
<path id="Path_27" class="st0" d="M75.3,191.1c79.6-131.9,220.2-164.4,261.3-174C427.7-3.9,544-0.1,556,37.4
	c11.2,35-72.7,86.7-63.5,100.3c7.7,11.4,64.5-25.8,135.7-42.6C716.6,74.3,857,78,901,147.1c49.4,77.5-54.7,186.9-7.2,238.9
	c48.3,52.9,189.8-23.5,211.5,13c14.9,25.1-35.7,88.1-96.7,141.5C775.8,744.1,427.1,775.9,396.5,707.2c-10.2-22.8,15.4-55.5,1.4-66.4
	c-15.6-12.1-51.6,25.3-103.9,44c-82.3,29.5-189,7.3-200.7-31C76.6,598.6,256,507.7,242,480.6c-11.6-22.6-131.5,51-190.6,5.8
	C-8.4,440.5,16,289.2,75.3,191.1z"/>
<title>nn</title>
<path class="st1" d="M680.8,809.7"/>
<g>
	<path class="st2" d="M459.7,261.5c-3.1,10.5-5,21.4-5.7,32.3c-0.2,3.7-0.3,7.5,1.1,10.9c3,6.9,11.4,9.9,18.9,9.2
		c7.5-0.6,14.3-4,21.4-6.4s15.1-3.9,21.9-0.8c7.6,3.5,11.9,11.7,19.2,15.7c3.2-3.7,0.6-9.3-1.9-13.5c-5.9-9.8-11.7-20.3-12.1-31.8
		c-0.2-5.3,0.4-11.5-3.6-14.9c-2.8-2.4-6.9-2.4-10.7-2.2c-9.5,0.4-19.3,0.9-28.3-2.3c-4.6-1.6-9.4-4.2-14.2-3.3
		c-4.1,0.8-7.3,4-9.2,7.7c-1.9,3.7-2.6,7.8-3.2,11.9"/>
	<path class="st3" d="M309.3,216.6c26.9,20.8,63.6,49.7,93.6,97.5c8.9,14.2,16.6,29,23.1,44.4c4.7-10.9,13-19.8,23.6-25.2
		c14.4-7.3,25.5-0.8,28.1-5c5.7-9.5-42.9-53.4-108.5-97.2c-31.7-21.2-64.6-40.6-98.5-58l-8.1,11.2
		C278.8,194.3,294.3,205,309.3,216.6z"/>
	<path class="st4" d="M547.4,369.4c0,47.4-25.4,85.9-56.8,85.9s-52.1-41.6-52.1-89s20.7-82.7,52.1-82.7S547.4,322,547.4,369.4z"/>
	<path class="st4" d="M553.6,503h-99.2l-16.1-66.4c-0.8-3.3,1.3-6.6,4.6-7.4c0.5-0.1,1-0.2,1.5-0.2h113.7c4.5-0.1,8.3,3.6,8.3,8.1
		c0,0.5,0,1.1-0.1,1.6L553.6,503z"/>
	<path class="st5" d="M256,230.7c-61.7,73.7-83.5,152.6-54.1,201.2c7.1,11.7,26.7,37.4,107.3,54.1c152.7,31.6,274-13.8,309.3-29.4
		c6.5-2.9,104.8-46.9,98.6-70.8c-3.4-13-20.1-22.2-50.1-22.3"/>
	<path class="st6" d="M239.3,467.6c5.6,21.1,8,46.8-4.8,67.6c-18.8,30.6-56.5,28.3-58.8,43.7c-3.3,21.4,64.3,55.2,142.7,75.9
		c24.6,6.5,108.4,27.1,246.9,17.9c179.5-12,261.9-61.6,295.8-85.9c15.2-10.6,28.4-23.8,39-39c38.1-55,46.2-145.1,4.8-181.3
		c-15.8-13.8-53.4-13.3-128-11.9c-20.2,0.4-128.6,2.4-128.8,11.1c-0.1,2.1,25.7,8.1,46.1,11.1c2.6,0.4,8.7,0.7,11.1,4.8
		c0.9,1.6,2.6,5.7-2.8,15.5c-14.2,26-40.5,39-40.5,39c-79.4,39.3-128.8,49.3-128.8,49.3c-74.9,15.1-134.5,11.9-155,10.3
		C330.8,492.3,284.1,482.8,239.3,467.6z"/>
	
		<ellipse transform="matrix(0.7485 -0.6631 0.6631 0.7485 -64.8583 217.1418)" class="st7" cx="253.8" cy="194.1" rx="12.8" ry="4.1"/>
	<ellipse transform="matrix(0.7485 -0.6631 0.6631 0.7485 -68.5449 226.016)" class="st7" cx="263.7" cy="203.4" rx="15.3" ry="5"/>
	
		<ellipse transform="matrix(0.7485 -0.6631 0.6631 0.7485 -72.5234 236.6315)" class="st7" cx="275.7" cy="213.9" rx="16.1" ry="5.2"/>
	
		<ellipse transform="matrix(0.7485 -0.6631 0.6631 0.7485 -37.9929 229.4473)" class="st7" cx="283.5" cy="164.8" rx="12.8" ry="4.1"/>
	<ellipse transform="matrix(0.7485 -0.6631 0.6631 0.7485 -37.7089 241.1114)" class="st7" cx="299" cy="170.3" rx="15.3" ry="5"/>
	
		<ellipse transform="matrix(0.7485 -0.6631 0.6631 0.7485 -38.2867 253.1515)" class="st7" cx="314.6" cy="177.1" rx="16.1" ry="5.2"/>
	<path class="st5" d="M292.5,151.1c48.9-25.7,101.9-42.6,156.6-50.1c127.5-17.3,259.6,29.7,304.5,50.9"/>
	<path class="st5" d="M317.2,155.9c48.9-25.7,101.9-42.6,156.6-50.1c127.5-17.3,228.6,22.6,273.5,43.7"/>
	<path class="st5" d="M333.1,167C382,141.4,435,124.4,489.7,117c127.5-17.3,221.5,13.8,266.4,35c7.4,35.5,22.8,90.1,30.2,125.6"/>
	<path class="st5" d="M235.3,208.4c-25.3,17-78.1,58.1-104.2,130.4c-3.2,8.7-52.1,151.2,35,236.1c39.2,38.2,88,47.4,112.1,50.1"/>
	<ellipse class="st8" cx="500.5" cy="409.9" rx="137.2" ry="37.8"/>
	<path class="st9" d="M469.5,292.3c-4.3,0.4-25.1,5.9-37.4,26.2c-19.3,32,8.2,74.9,11.9,73.9c0.2-0.1,0.9-2.4,2.4-7.2l0,0
		c1.5-1.5,2.2-2.2,2.4-2.4c2-2.4-5.7-11.4-8.7-18.3c-6.3-14-0.1-34.2,11.1-42.1c2.5-1.8,2.9-1.3,5.6-3.2
		C465.9,312.7,468.6,301.1,469.5,292.3z"/>
	<path class="st10" d="M510,273.6c0,16-11.5,39.4-19.2,39.4c-16.2,0-24.6-23.3-24.6-39.4s9.8-29,21.9-29
		C500.2,244.6,510,257.6,510,273.6z"/>
	<path class="st11" d="M517.2,261.7c0,16-15.2,39.4-25.4,39.4c-21.5,0-32.6-23.3-32.6-39.4c0-16,13-29,29-29
		C504.2,232.6,517.2,245.6,517.2,261.7z"/>
	<circle class="st12" cx="449.2" cy="388.9" r="6.8"/>
	<path class="st4" d="M607.8,121.3c-6.9,9.6-20.9,32.1-21.5,62.8c-1,58.8,48.3,93.4,52.5,96.2c61,41.3,146.7,10.1,147.1-3.2
		c0.3-10.1-49.1-5.7-98.6-39.8C643,207,620.3,160.6,607.8,121.3z"/>
	<path class="st4" d="M781.9,266.8"/>
	<path class="st13" d="M681.3,226.7"/>
	<line class="st5" x1="673.4" y1="226.7" x2="756.2" y2="152.2"/>
	<line class="st5" x1="607.4" y1="121.7" x2="755.6" y2="152.1"/>
	<path class="st14" d="M879.3,369.8c-6.7-9.5-16.7-12.9-20.7-14.3c-5.6-1.9-15.6-4.2-29.4-6.5v-19.7c0-5.3-4.3-9.5-9.5-9.5H803
		c-5.3,0-9.5,4.3-9.5,9.5v11.1c0,1.1,0.2,2.3,0.6,3.3c-30.6-4.1-68.2-1-115.1-12.1c-41.3-16.7-48.1-31.7-48.5-40.5
		c-0.1-2.1,0.1-8-3.2-14.3c-3.6-7-9.7-11.1-14.3-13.5c-3.6,4-8.3,10.5-9.5,19.1c-2.8,20.1,15.3,36.9,25.4,46.1
		c26.9,24.3,57.4,31.3,85.1,37.4c21,4.6,24.3,3.1,97.8,12.7c12.5,1.6,22.8,3.1,29.4,4c0.9,0.4,7,3.4,8.7,10.3
		c1.8,7.1-8.3,12.4-6.4,16.7c1.6,3.4,7.7,1.2,13.5,6.4c4,3.5,3.2,6.4,5.6,7.2c6.3,2.1,22.6-14,23.1-32.6
		C885.8,383.1,883.6,375.8,879.3,369.8z"/>
	<path class="st15" d="M319.7,584.9c1-5.3,2.7-16.4,8.5-14.7c9.5,2.7,12.7,0.3,24.1,2.2c5.9,1,13.3,0.5,27.7-0.3
		c43.1-2.6,64.7-4,93.5-10.1c22.7-4.8,44.9-11.6,66.4-20.1c6.9,12.2,13.7,35.5,20.6,47.7c-17.2,9-43.7,9.5-77.9,15.3
		c-5.7,1-31.8,5.2-66.7,2.8C382.9,605.1,350.4,597.5,319.7,584.9z"/>
	<path class="st15" d="M844.6,421.4c-3.3,1.8-2.1,7.6-3.6,13.6c-0.7,2.8-2.8,8.9-15.7,18.6c-23.1,17.4-52.9,27.2-52.9,27.2
		c-21.7,7.1-43.9,12.4-66.4,15.7c6.8,14.2,13.5,28.3,20.3,42.5c0.2,1.5,0.9,2.8,1.9,3.9c9.7,10,50.9-16.1,57.1-20
		c17.1-10.8,41.6-26.3,52.1-50.7c3.6-8.3,2.9-11.4,9.3-26.4c4.7-11.1,8.7-18.1,5.7-22.1C850.7,421.2,846.8,420.2,844.6,421.4z"/>
	<path class="st5" d="M735,514.9c37.6-9.1,71.8-28.5,99-56.1"/>
	<path class="st5" d="M243.3,217.1c-8.8,5.8-85,58.3-91.4,157.4c-6.7,102.7,72.9,163.3,80.3,169.4c31.2,15,75.9,37,140.7,42.9
		c54.9,5,110.2-0.7,163-16.7"/>
	<path class="st16" d="M865.1,314.7c0,1.1-0.3,2.1-0.9,3c-0.2,0.3-0.5,0.7-0.8,1c-0.3,0.2-0.5,0.5-0.8,0.7c-1,0.8-2.1,1.5-3.2,2
		c-2.1,1-4.2,1.9-6.4,2.5c-4.2,1.3-8.6,2.4-12.9,3.2c-8.6,1.6-17.4,2.3-26.2,2.1c-4.4-0.1-8.7-0.3-13.1-0.6s-8.7-0.9-13.1-1.6
		c-4.4-0.7-8.7-1.7-13-3c-2.2-0.7-4.4-1.5-6.4-2.5c-1.2-0.6-2.2-1.3-3.2-2.1c-0.3-0.2-0.5-0.5-0.8-0.8c-0.3-0.3-0.6-0.6-0.8-1
		c-0.6-0.9-0.9-1.9-0.9-3c0.1-1,0.4-2,1.1-2.9c0.2-0.3,0.5-0.6,0.8-0.9c0.3-0.2,0.5-0.5,0.8-0.7c1-0.7,2.1-1.3,3.3-1.7
		c2.1-0.8,4.3-1.4,6.5-1.8c4.3-0.8,8.6-1.4,13-1.8c4.3-0.4,8.6-0.6,12.9-0.7c4.3-0.1,8.6-0.2,12.9-0.1c8.6,0.1,17.2,0.3,25.8,0.9
		c4.4,0.3,8.7,0.8,13,1.6c2.2,0.4,4.4,1,6.5,1.8c1.2,0.4,2.3,1,3.3,1.7c0.3,0.2,0.6,0.5,0.8,0.7c0.3,0.3,0.6,0.6,0.8,0.9
		C864.6,312.6,865,313.6,865.1,314.7z M860.2,314.7c0,0.1,0.1,0.1,0-0.1c-0.1-0.2-0.1-0.2-0.2-0.3c-0.1-0.1-0.2-0.3-0.4-0.4
		c-0.7-0.6-1.5-1.1-2.3-1.5c-1.8-0.9-3.7-1.7-5.7-2.3c-4-1.3-8.2-2.3-12.3-3.1c-8.4-1.5-17-2.3-25.6-2.1c-4.3,0.1-8.6,0.3-12.8,0.6
		c-4.3,0.4-8.5,0.9-12.7,1.6c-4.2,0.7-8.3,1.7-12.4,2.9c-2,0.6-3.9,1.4-5.7,2.3c-0.8,0.4-1.6,0.9-2.3,1.5c-0.2,0.1-0.2,0.3-0.4,0.4
		c-0.1,0.1-0.2,0.2-0.2,0.3c-0.1,0.1,0,0.2,0,0.1c0-0.1,0-0.1,0.2,0c0.1,0.1,0.2,0.2,0.3,0.2c0.2,0.1,0.2,0.2,0.4,0.3
		c0.7,0.5,1.5,0.8,2.3,1.1c1.9,0.7,3.8,1.2,5.7,1.6c4.1,0.8,8.2,1.3,12.3,1.6c4.2,0.4,8.4,0.6,12.6,0.7c4.2,0.1,8.4,0.1,12.6,0.1
		c8.4-0.1,16.8-0.3,25.2-0.9c4.1-0.2,8.3-0.7,12.4-1.5c2-0.4,3.9-0.9,5.7-1.6c0.8-0.3,1.6-0.7,2.3-1.1c0.2-0.1,0.3-0.2,0.4-0.3
		c0.1-0.1,0.2-0.2,0.3-0.2C860.1,314.7,860.1,314.6,860.2,314.7z"/>
	<line class="st17" x1="790.3" y1="307" x2="828.4" y2="319.7"/>
	<line class="st17" x1="783.1" y1="318.9" x2="843.5" y2="308.6"/>
	<line class="st17" x1="764.8" y1="314.9" x2="862.6" y2="314.9"/>
	<line class="st17" x1="807" y1="321.3" x2="816.5" y2="303.8"/>
	<path class="st18" d="M485.5,233.9c0.7,3.7-2,7.2-4.9,9.7s-6.4,4.5-8.1,7.9c-2.2,4.2-1.4,9.9-4.9,13c-1.9,1.7-4.8,2.2-6.4,4.2
		c-1.1,1.5-1.3,3.4-1.4,5.3c-0.2,6.2,0.7,12.4,2.6,18.4c1.3,4.2,3.2,8.3,3.1,12.6c0,3.2-1.1,6.4-2,9.5c-1.7,6.4-2.4,13.1-2,19.8
		c0.1,1.7,0.3,3.4-0.3,5c-0.6,1.6-2.1,3-3.8,2.7c-1.5-0.3-2.7-1.7-4.2-1.5c-0.9,0.2-1.7,0.8-2.3,1.6l-11.1,12.9
		c-1.1,1.5-2.5,2.7-4.1,3.5c-2.9,1.3-6.5,0.2-8.6-2.2c-2-2.5-2.8-5.8-2.2-9c0.8-5.4,4.6-10.9,2.5-15.9c-0.8-1.7-2.1-3.1-3.2-4.7
		c-2.1-3.3-2.5-7.4-1.2-11.1c2.7-7.2,12-12.1,10.9-19.7c-0.3-2.2-1.5-4.3-1.2-6.5c0.3-2,1.9-3.5,3-5.2c4.1-6.6,1.1-17.1,7.5-21.5
		c2.2-1.5,5.2-1.9,6.9-4c1.1-1.3,1.4-3.1,1.8-4.7c1-4.6,2.5-9.2,4.4-13.5c2.9-6.6,7.3-13.2,14-15.8c5.9-2.3,12.8-1.3,18.2-4.5
		c1.4-0.8,3-2,4.5-1.3c1,0.5,1.5,1.6,2.1,2.5c3.5,4.4,11.7,0.7,15.6,4.6c1.5,1.5,1.9,3.8,2.8,5.7c2.7,5.9,9.8,8.6,13.6,13.9
		c8.1,11.3-1.4,28.1,4.8,40.6c1,2.1,2.4,3.9,3.3,6.1c1.1,2.6,1.3,5.5,1.5,8.3l1.6,20.6c-2.3-13-14.4-22.1-18.3-34.7
		c-2.3-7.4-1.9-16.3-7.6-21.7c-4.2-3.9-10.9-4.9-13.7-9.9c-2.4-4.1-1.6-10.2-5.5-12.9c-3.4-2.3-9.1-1-11.2-4.5"/>
	<path class="st19" d="M480.1,228.5c-2,2.9-3.3,7.8-1.3,11c1.8,2.9,5.7,1.9,7.5-0.4c1.5-1.9,3.8-6.6,1-8.3c-1.3-0.8-2.9-0.2-3.8,0.9
		c-1.3,1.4-1.1,3.4-2.2,4.8l2.1,1.2l1.9-4.2l-2.2-0.9c-0.2,1.1-0.2,2.2,0.7,2.9c0.8,0.6,1.8,0.4,2.5-0.2l-2-1.2
		c-0.3,1.5-1,2.8-2,3.9l2,0.5l0.3-1.3c1.1-1.1-0.6-2.8-1.7-1.7c-1,0.9-1.3,2.3-0.9,3.6c0.2,0.6,0.8,1,1.5,0.8
		c0.2-0.1,0.4-0.2,0.5-0.3c1.3-1.3,2.3-3.1,2.6-4.9c0.2-0.6-0.2-1.3-0.9-1.5c-0.4-0.1-0.8,0-1.1,0.3l0.8-0.3
		c0.2-1.2-1.6-2.3-2.2-0.9l-1.9,4.2c-0.3,0.6-0.1,1.3,0.4,1.6c0.6,0.3,1.3,0.1,1.6-0.4c0.4-0.5,0.7-1.1,0.9-1.7
		c0.1-0.4,0.3-2.2,0.7-2.4c2.1-1,0.7,1.8,0.5,2.2c-0.3,0.8-0.8,1.6-1.4,2.2c-0.7,0.7-1.9,1.3-2.9,0.7s-1-2.6-1-3.5
		c0.1-2,0.7-3.8,1.9-5.4C483.1,228.4,481,227.2,480.1,228.5L480.1,228.5z"/>
	<path class="st20" d="M549.6,396h-99.2l-16.1-66.4c-0.8-3.3,1.3-6.6,4.6-7.4c0.5-0.1,1-0.2,1.5-0.2h113.7c4.5-0.1,8.3,3.6,8.3,8.1
		c0,0.5,0,1.1-0.1,1.6L549.6,396z"/>
</g>
</svg>
